<svg width="122" height="36" viewBox="0 0 122 36" fill="none" xmlns="http://www.w3.org/2000/svg">
<path d="M3.32045 15.8786C3.85129 16.4094 3.85129 17.2701 3.32045 17.8009C2.78962 18.3318 1.92896 18.3318 1.39813 17.8009C0.867291 17.2701 0.867291 16.4094 1.39813 15.8786C1.92896 15.3478 2.78962 15.3478 3.32045 15.8786Z" fill="#79296B"/>
<path d="M11.0098 15.8786C11.5406 16.4094 11.5406 17.2701 11.0098 17.8009C10.4789 18.3318 9.61827 18.3318 9.08743 17.8009C8.5566 17.2701 8.5566 16.4094 9.08743 15.8786C9.61827 15.3478 10.4789 15.3478 11.0098 15.8786Z" fill="#79296B"/>
<path d="M18.6991 15.8786C19.2299 16.4094 19.2299 17.2701 18.6991 17.8009C18.1682 18.3318 17.3076 18.3318 16.7767 17.8009C16.2459 17.2701 16.2459 16.4094 16.7767 15.8786C17.3076 15.3478 18.1682 15.3478 18.6991 15.8786Z" fill="#79296B"/>
<path d="M26.3884 15.8786C26.9192 16.4094 26.9192 17.2701 26.3884 17.8009C25.8575 18.3318 24.9969 18.3318 24.466 17.8009C23.9352 17.2701 23.9352 16.4094 24.466 15.8786C24.9969 15.3478 25.8575 15.3478 26.3884 15.8786Z" fill="#79296B"/>
<path d="M7.16511 21.6456C7.69594 22.1764 7.69594 23.0371 7.16511 23.5679C6.63427 24.0987 5.77362 24.0987 5.24278 23.5679C4.71194 23.0371 4.71194 22.1764 5.24278 21.6456C5.77362 21.1147 6.63427 21.1147 7.16511 21.6456Z" fill="#79296B"/>
<path d="M14.8544 21.6456C15.3852 22.1764 15.3852 23.0371 14.8544 23.5679C14.3236 24.0987 13.4629 24.0987 12.9321 23.5679C12.4012 23.0371 12.4012 22.1764 12.9321 21.6456C13.4629 21.1147 14.3236 21.1147 14.8544 21.6456Z" fill="#79296B"/>
<path d="M22.5437 21.6456C23.0746 22.1764 23.0746 23.0371 22.5437 23.5679C22.0129 24.0987 21.1522 24.0987 20.6214 23.5679C20.0906 23.0371 20.0906 22.1764 20.6214 21.6456C21.1522 21.1147 22.0129 21.1147 22.5437 21.6456Z" fill="#79296B"/>
<path d="M18.6991 27.4126C19.2299 27.9434 19.2299 28.8041 18.6991 29.3349C18.1682 29.8657 17.3076 29.8657 16.7767 29.3349C16.2459 28.8041 16.2459 27.9434 16.7767 27.4126C17.3076 26.8817 18.1682 26.8817 18.6991 27.4126Z" fill="#79296B"/>
<path d="M11.0098 27.4126C11.5406 27.9434 11.5406 28.8041 11.0098 29.3349C10.4789 29.8657 9.61827 29.8657 9.08743 29.3349C8.5566 28.8041 8.5566 27.9434 9.08743 27.4126C9.61827 26.8817 10.4789 26.8817 11.0098 27.4126Z" fill="#79296B"/>
<path d="M14.8544 33.1795C15.3852 33.7104 15.3852 34.571 14.8544 35.1019C14.3236 35.6327 13.4629 35.6327 12.9321 35.1019C12.4012 34.571 12.4012 33.7104 12.9321 33.1795C13.4629 32.6487 14.3236 32.6487 14.8544 33.1795Z" fill="#79296B"/>
<path d="M7.16511 10.1116C7.69594 10.6425 7.69594 11.5031 7.16511 12.034C6.63427 12.5648 5.77362 12.5648 5.24278 12.034C4.71194 11.5031 4.71194 10.6425 5.24278 10.1116C5.77362 9.58079 6.63427 9.58079 7.16511 10.1116Z" fill="#79296B"/>
<path d="M22.5437 10.1116C23.0746 10.6425 23.0746 11.5031 22.5437 12.034C22.0129 12.5648 21.1522 12.5648 20.6214 12.034C20.0906 11.5031 20.0906 10.6425 20.6214 10.1116C21.1522 9.58079 22.0129 9.58079 22.5437 10.1116Z" fill="#79296B"/>
<path d="M3.32045 15.8786C3.85129 16.4094 3.85129 17.2701 3.32045 17.8009C2.78962 18.3318 1.92896 18.3318 1.39813 17.8009C0.867291 17.2701 0.867291 16.4094 1.39813 15.8786C1.92896 15.3478 2.78962 15.3478 3.32045 15.8786Z" stroke="#79296B"/>
<path d="M11.0098 15.8786C11.5406 16.4094 11.5406 17.2701 11.0098 17.8009C10.4789 18.3318 9.61827 18.3318 9.08743 17.8009C8.5566 17.2701 8.5566 16.4094 9.08743 15.8786C9.61827 15.3478 10.4789 15.3478 11.0098 15.8786Z" stroke="#79296B"/>
<path d="M18.6991 15.8786C19.2299 16.4094 19.2299 17.2701 18.6991 17.8009C18.1682 18.3318 17.3076 18.3318 16.7767 17.8009C16.2459 17.2701 16.2459 16.4094 16.7767 15.8786C17.3076 15.3478 18.1682 15.3478 18.6991 15.8786Z" stroke="#79296B"/>
<path d="M26.3884 15.8786C26.9192 16.4094 26.9192 17.2701 26.3884 17.8009C25.8575 18.3318 24.9969 18.3318 24.466 17.8009C23.9352 17.2701 23.9352 16.4094 24.466 15.8786C24.9969 15.3478 25.8575 15.3478 26.3884 15.8786Z" stroke="#79296B"/>
<path d="M7.16511 21.6456C7.69594 22.1764 7.69594 23.0371 7.16511 23.5679C6.63427 24.0987 5.77362 24.0987 5.24278 23.5679C4.71194 23.0371 4.71194 22.1764 5.24278 21.6456C5.77362 21.1147 6.63427 21.1147 7.16511 21.6456Z" stroke="#79296B"/>
<path d="M14.8544 21.6456C15.3852 22.1764 15.3852 23.0371 14.8544 23.5679C14.3236 24.0987 13.4629 24.0987 12.9321 23.5679C12.4012 23.0371 12.4012 22.1764 12.9321 21.6456C13.4629 21.1147 14.3236 21.1147 14.8544 21.6456Z" stroke="#79296B"/>
<path d="M22.5437 21.6456C23.0746 22.1764 23.0746 23.0371 22.5437 23.5679C22.0129 24.0987 21.1522 24.0987 20.6214 23.5679C20.0906 23.0371 20.0906 22.1764 20.6214 21.6456C21.1522 21.1147 22.0129 21.1147 22.5437 21.6456Z" stroke="#79296B"/>
<path d="M18.6991 27.4126C19.2299 27.9434 19.2299 28.8041 18.6991 29.3349C18.1682 29.8657 17.3076 29.8657 16.7767 29.3349C16.2459 28.8041 16.2459 27.9434 16.7767 27.4126C17.3076 26.8817 18.1682 26.8817 18.6991 27.4126Z" stroke="#79296B"/>
<path d="M11.0098 27.4126C11.5406 27.9434 11.5406 28.8041 11.0098 29.3349C10.4789 29.8657 9.61827 29.8657 9.08743 29.3349C8.5566 28.8041 8.5566 27.9434 9.08743 27.4126C9.61827 26.8817 10.4789 26.8817 11.0098 27.4126Z" stroke="#79296B"/>
<path d="M14.8544 33.1795C15.3852 33.7104 15.3852 34.571 14.8544 35.1019C14.3236 35.6327 13.4629 35.6327 12.9321 35.1019C12.4012 34.571 12.4012 33.7104 12.9321 33.1795C13.4629 32.6487 14.3236 32.6487 14.8544 33.1795Z" stroke="#79296B"/>
<path d="M7.16511 10.1116C7.69594 10.6425 7.69594 11.5031 7.16511 12.034C6.63427 12.5648 5.77362 12.5648 5.24278 12.034C4.71194 11.5031 4.71194 10.6425 5.24278 10.1116C5.77362 9.58079 6.63427 9.58079 7.16511 10.1116Z" stroke="#79296B"/>
<path d="M22.5437 10.1116C23.0746 10.6425 23.0746 11.5031 22.5437 12.034C22.0129 12.5648 21.1522 12.5648 20.6214 12.034C20.0906 11.5031 20.0906 10.6425 20.6214 10.1116C21.1522 9.58079 22.0129 9.58079 22.5437 10.1116Z" stroke="#79296B"/>
<path d="M3.32031 0.5C7.99037 2.46293 11.3595 3.35333 13.8931 12.9951C16.2724 8.792 17.5434 7.19663 19.6601 6.26698" stroke="#0E7C54"/>
<path d="M43.9864 27.1L38.6364 12.35C38.4197 11.7333 37.9947 11.3333 37.3614 11.15L36.8114 11V10.475H43.7364V10.975L43.0364 11.15C42.653 11.25 42.4364 11.425 42.3864 11.675C42.353 11.925 42.403 12.2417 42.5364 12.625L46.1364 23.3L49.7614 12.625C49.8947 12.2417 49.953 11.925 49.9364 11.675C49.9364 11.425 49.7447 11.25 49.3614 11.15L48.7614 10.975V10.475H52.4864V11L51.8614 11.15C51.5114 11.2333 51.2614 11.375 51.1114 11.575C50.978 11.775 50.853 12.05 50.7364 12.4L45.7614 27.1H43.9864ZM55.1528 13.25C54.6028 13.25 54.1361 13.075 53.7528 12.725C53.3694 12.375 53.1778 11.9333 53.1778 11.4C53.1778 10.85 53.3694 10.4083 53.7528 10.075C54.1361 9.725 54.6028 9.55 55.1528 9.55C55.7028 9.55 56.1694 9.725 56.5528 10.075C56.9361 10.4083 57.1278 10.85 57.1278 11.4C57.1278 11.9333 56.9361 12.375 56.5528 12.725C56.1694 13.075 55.7028 13.25 55.1528 13.25ZM52.2778 27V26.525L52.6528 26.425C52.9861 26.325 53.2111 26.175 53.3278 25.975C53.4444 25.775 53.5111 25.5083 53.5278 25.175V20.575C53.5278 20.0583 53.5278 19.5833 53.5278 19.15C53.5278 18.7 53.5194 18.2417 53.5028 17.775C53.5028 17.4417 53.4361 17.1833 53.3028 17C53.1861 16.8 52.9611 16.6667 52.6278 16.6L52.2778 16.525V16.075L56.6528 14.625L56.9528 14.9L56.8778 18.45V25.2C56.8778 25.5333 56.9361 25.8 57.0528 26C57.1861 26.2 57.4111 26.35 57.7278 26.45L58.0028 26.525V27H52.2778ZM59.1131 27V26.525L59.5131 26.425C60.0631 26.2583 60.3381 25.85 60.3381 25.2V17.825C60.3215 17.475 60.2631 17.2083 60.1631 17.025C60.0631 16.825 59.8465 16.6917 59.5131 16.625L59.1131 16.525V16.075L63.1631 14.625L63.4631 14.9L63.6381 16.45C64.2381 15.9167 64.9048 15.4833 65.6381 15.15C66.3881 14.8 67.1215 14.625 67.8381 14.625C68.9381 14.625 69.7798 14.925 70.3631 15.525C70.9631 16.125 71.2631 17.0417 71.2631 18.275V25.225C71.2631 25.875 71.5631 26.2833 72.1631 26.45L72.4381 26.525V27H66.6881V26.525L67.0631 26.425C67.6131 26.2417 67.8881 25.8333 67.8881 25.2V17.775C67.8881 17.1917 67.7631 16.7667 67.5131 16.5C67.2631 16.2333 66.8465 16.1 66.2631 16.1C65.4465 16.1 64.5965 16.4583 63.7131 17.175V25.225C63.7131 25.875 64.0048 26.2833 64.5881 26.45L64.8381 26.525V27H59.1131ZM76.3686 13.25C75.8186 13.25 75.3519 13.075 74.9686 12.725C74.5853 12.375 74.3936 11.9333 74.3936 11.4C74.3936 10.85 74.5853 10.4083 74.9686 10.075C75.3519 9.725 75.8186 9.55 76.3686 9.55C76.9186 9.55 77.3853 9.725 77.7686 10.075C78.1519 10.4083 78.3436 10.85 78.3436 11.4C78.3436 11.9333 78.1519 12.375 77.7686 12.725C77.3853 13.075 76.9186 13.25 76.3686 13.25ZM73.4936 27V26.525L73.8686 26.425C74.2019 26.325 74.4269 26.175 74.5436 25.975C74.6603 25.775 74.7269 25.5083 74.7436 25.175V20.575C74.7436 20.0583 74.7436 19.5833 74.7436 19.15C74.7436 18.7 74.7353 18.2417 74.7186 17.775C74.7186 17.4417 74.6519 17.1833 74.5186 17C74.4019 16.8 74.1769 16.6667 73.8436 16.6L73.4936 16.525V16.075L77.8686 14.625L78.1686 14.9L78.0936 18.45V25.2C78.0936 25.5333 78.1519 25.8 78.2686 26C78.4019 26.2 78.6269 26.35 78.9436 26.45L79.2186 26.525V27H73.4936ZM85.6098 27.075L81.2098 16.5C81.0265 16.0333 80.7015 15.7333 80.2348 15.6L79.7098 15.475V15H86.0348V15.475L85.3848 15.625C84.8515 15.7583 84.6931 16.1 84.9098 16.65L87.5348 23.625L89.9848 16.7C90.0681 16.4167 90.0848 16.1917 90.0348 16.025C90.0015 15.8417 89.8431 15.7167 89.5598 15.65L88.8348 15.475V15H92.6348V15.475L91.8098 15.675C91.3265 15.7917 91.0015 16.0917 90.8348 16.575L87.0598 27.075H85.6098ZM96.1928 13.25C95.6428 13.25 95.1762 13.075 94.7928 12.725C94.4095 12.375 94.2178 11.9333 94.2178 11.4C94.2178 10.85 94.4095 10.4083 94.7928 10.075C95.1762 9.725 95.6428 9.55 96.1928 9.55C96.7428 9.55 97.2095 9.725 97.5928 10.075C97.9762 10.4083 98.1678 10.85 98.1678 11.4C98.1678 11.9333 97.9762 12.375 97.5928 12.725C97.2095 13.075 96.7428 13.25 96.1928 13.25ZM93.3178 27V26.525L93.6928 26.425C94.0262 26.325 94.2512 26.175 94.3678 25.975C94.4845 25.775 94.5512 25.5083 94.5678 25.175V20.575C94.5678 20.0583 94.5678 19.5833 94.5678 19.15C94.5678 18.7 94.5595 18.2417 94.5428 17.775C94.5428 17.4417 94.4762 17.1833 94.3428 17C94.2262 16.8 94.0012 16.6667 93.6678 16.6L93.3178 16.525V16.075L97.6928 14.625L97.9928 14.9L97.9178 18.45V25.2C97.9178 25.5333 97.9762 25.8 98.0928 26C98.2262 26.2 98.4512 26.35 98.7678 26.45L99.0428 26.525V27H93.3178ZM104.853 27.35C103.82 27.35 103.003 27.1 102.403 26.6C101.82 26.0833 101.528 25.25 101.528 24.1C101.528 23.7 101.528 23.325 101.528 22.975C101.545 22.6083 101.553 22.1833 101.553 21.7V15.775H99.7782V15.225L100.453 15.125C100.937 15.0417 101.345 14.8917 101.678 14.675C102.028 14.4583 102.345 14.1583 102.628 13.775L104.253 11.525H105.003L104.928 15H107.778V15.775H104.903V24.3C104.903 24.9 105.028 25.35 105.278 25.65C105.545 25.95 105.87 26.1 106.253 26.1C106.587 26.1 106.887 26.025 107.153 25.875C107.42 25.7083 107.687 25.4917 107.953 25.225L108.278 25.6C107.962 26.15 107.52 26.5833 106.953 26.9C106.387 27.2 105.687 27.35 104.853 27.35ZM112.738 27.35C111.788 27.35 110.98 27.0833 110.313 26.55C109.663 26 109.338 25.2167 109.338 24.2C109.338 23.4 109.721 22.6667 110.488 22C111.271 21.3167 112.496 20.8167 114.163 20.5C114.446 20.4333 114.771 20.375 115.138 20.325C115.521 20.2583 115.896 20.1917 116.263 20.125V18.35C116.263 17.2167 116.121 16.4333 115.838 16C115.555 15.5667 115.105 15.35 114.488 15.35H114.413C114.03 15.35 113.721 15.475 113.488 15.725C113.271 15.9583 113.13 16.35 113.063 16.9L112.988 17.225C112.938 17.8917 112.763 18.3833 112.463 18.7C112.163 19 111.788 19.15 111.338 19.15C110.921 19.15 110.571 19.025 110.288 18.775C110.021 18.5083 109.888 18.1667 109.888 17.75C109.888 17.0667 110.121 16.4917 110.588 16.025C111.055 15.5583 111.671 15.2083 112.438 14.975C113.221 14.7417 114.063 14.625 114.963 14.625C116.446 14.625 117.58 14.9833 118.363 15.7C119.146 16.4167 119.538 17.5833 119.538 19.2V24.775C119.538 25.4917 119.88 25.85 120.563 25.85H121.138L121.388 26.125C121.088 26.5083 120.755 26.8 120.388 27C120.021 27.2167 119.521 27.325 118.888 27.325C118.171 27.325 117.596 27.1583 117.163 26.825C116.746 26.475 116.471 26.0167 116.338 25.45C115.805 26.0167 115.28 26.475 114.763 26.825C114.246 27.175 113.571 27.35 112.738 27.35ZM114.188 25.75C114.521 25.75 114.838 25.675 115.138 25.525C115.438 25.375 115.813 25.125 116.263 24.775V20.775C115.83 20.8417 115.388 20.925 114.938 21.025C114.221 21.1917 113.638 21.5 113.188 21.95C112.755 22.4 112.538 23.0083 112.538 23.775C112.538 24.4417 112.688 24.9417 112.988 25.275C113.305 25.5917 113.705 25.75 114.188 25.75Z" fill="#2E2E2E"/>
</svg>
